<svg width="36" height="36" viewBox="0 0 36 36" fill="none" xmlns="http://www.w3.org/2000/svg">
<path d="M19.125 4.125V6.75H22.0875C22.614 6.75 23.1285 6.909 23.5635 7.2045L26.109 8.9355C26.1705 8.9775 26.244 9 26.319 9H32.472C32.7704 9 33.0565 9.11853 33.2675 9.3295C33.4785 9.54048 33.597 9.82663 33.597 10.125C33.597 10.4234 33.4785 10.7095 33.2675 10.9205C33.0565 11.1315 32.7704 11.25 32.472 11.25H30.105L35.154 22.77C35.2553 23.0003 35.2763 23.2579 35.2138 23.5016C35.1512 23.7453 35.0087 23.961 34.809 24.114C34.659 24.225 34.5045 24.3285 34.344 24.423C33.9635 24.65 33.5675 24.85 33.159 25.0215C31.8022 25.5889 30.3456 25.8791 28.875 25.875C27.4049 25.8796 25.9488 25.5899 24.5925 25.023C24.1837 24.8515 23.7877 24.651 23.4075 24.423C23.2483 24.3309 23.0946 24.2297 22.947 24.12L22.9395 24.114C22.7398 23.961 22.5973 23.7453 22.5347 23.5016C22.4722 23.2579 22.4932 23.0003 22.5945 22.77L27.6465 11.25H26.3175C25.791 11.25 25.2765 11.091 24.8415 10.7955L22.296 9.0645C22.2342 9.02218 22.1609 8.99968 22.086 9H19.125V30.75H25.8555C26.1539 30.75 26.44 30.8685 26.651 31.0795C26.862 31.2905 26.9805 31.5766 26.9805 31.875C26.9805 32.1734 26.862 32.4595 26.651 32.6705C26.44 32.8815 26.1539 33 25.8555 33H10.1445C9.84613 33 9.55998 32.8815 9.349 32.6705C9.13802 32.4595 9.0195 32.1734 9.0195 31.875C9.0195 31.5766 9.13802 31.2905 9.349 31.0795C9.55998 30.8685 9.84613 30.75 10.1445 30.75H16.875V9H13.9125C13.8376 8.99996 13.7644 9.02244 13.7025 9.0645L11.1585 10.7955C10.7235 11.091 10.209 11.25 9.68249 11.25H8.35349L13.4055 22.77C13.5033 22.9938 13.5256 23.2433 13.469 23.4809C13.4125 23.7185 13.2801 23.9313 13.092 24.087C12.972 24.1845 12.852 24.276 12.627 24.4215C12.2476 24.6672 11.8505 24.8843 11.439 25.071C10.0842 25.6865 8.61301 26.0036 7.12499 26.001C5.63692 26.0041 4.16561 25.687 2.81099 25.071C2.39944 24.8843 2.00235 24.6672 1.62299 24.4215C1.46258 24.3195 1.30785 24.2088 1.15949 24.09C0.972861 23.9325 0.841583 23.7194 0.784896 23.4818C0.72821 23.2443 0.749096 22.9948 0.844494 22.77L5.89499 11.25H3.52949C3.23113 11.25 2.94498 11.1315 2.734 10.9205C2.52302 10.7095 2.40449 10.4234 2.40449 10.125C2.40449 9.82663 2.52302 9.54048 2.734 9.3295C2.94498 9.11853 3.23113 9 3.52949 9H9.68249C9.75749 9 9.83099 8.9775 9.894 8.9355L12.4365 7.2045C12.8715 6.9075 13.3875 6.75 13.914 6.75H16.875V4.125C16.875 3.82663 16.9935 3.54048 17.2045 3.3295C17.4155 3.11853 17.7016 3 18 3C18.2984 3 18.5845 3.11853 18.7955 3.3295C19.0065 3.54048 19.125 3.82663 19.125 4.125ZM3.28949 22.797C4.47006 23.4255 5.78757 23.7527 7.12499 23.7495C8.46242 23.7527 9.77993 23.4255 10.9605 22.797L7.12499 14.052L3.28949 22.797ZM25.0545 22.761C25.1775 22.821 25.3155 22.8855 25.467 22.95C26.262 23.2845 27.4245 23.625 28.875 23.625C30.1973 23.6287 31.5034 23.3333 32.6955 22.761L28.875 14.0505L25.0545 22.761Z" fill="#F19305"/>
</svg>
