<svg width="36" height="36" viewBox="0 0 36 36" fill="none" xmlns="http://www.w3.org/2000/svg">
<path d="M22.9941 4.62769L16.1571 9.01617L16.8501 9.39565L22.9328 5.49119L33.2502 11.3353L27.3323 15.1338L27.6206 15.2916V15.7731L32.2558 12.7977L33.2286 13.3488L27.6205 16.9485V17.7727L32.165 14.8557L33.2286 15.4583L27.6205 19.0579V19.8822L32.165 16.9651L33.2286 17.5677L27.6205 21.1674V21.9916L34.6541 17.4769L32.9084 16.4881L34.654 15.3676L32.9083 14.3787L34.6539 13.2581L32.999 12.3206L34.6754 11.2445L22.994 4.62769H22.9941ZM25.1785 7.77347C23.6993 8.51569 21.729 8.64126 20.3417 8.08165L17.6297 9.82237L26.5526 14.707L29.1248 13.056C28.1116 12.2562 28.1959 11.0627 29.3316 10.1261L25.1784 7.77347H25.1785ZM15.9964 10.3711L11.0261 13.6121L20.5612 19.1011L20.6547 19.0413C20.8305 18.9281 21.0787 18.7678 21.3749 18.5763C21.9669 18.1936 22.7504 17.6862 23.5316 17.1799C24.6568 16.4508 25.2366 16.0746 25.7757 15.7249L15.9964 10.3711ZM24.1152 10.4534C24.1152 10.4534 24.1153 10.4534 24.1154 10.4534C24.3402 10.4547 24.5464 10.5029 24.7004 10.5901C24.79 10.6409 24.8595 10.7034 24.9049 10.7743C24.9503 10.8452 24.9708 10.9229 24.9651 11.0031C24.9594 11.0833 24.9277 11.1644 24.8718 11.2417C24.8159 11.319 24.7368 11.391 24.6392 11.4537C24.5416 11.5163 24.4273 11.5684 24.3028 11.6069C24.1784 11.6453 24.0462 11.6695 23.9138 11.6779C23.7814 11.6863 23.6515 11.6789 23.5314 11.656C23.4112 11.633 23.3033 11.5951 23.2137 11.5444C23.0328 11.4419 22.9377 11.2934 22.9491 11.1315C22.9606 10.9695 23.0778 10.8075 23.2749 10.681C23.3869 10.6091 23.5206 10.5513 23.6661 10.5119C23.8116 10.4725 23.9651 10.4525 24.1152 10.4534ZM8.75729 13.7661L1.346 18.5231L3.00094 19.4606L1.32455 20.5367L3.07027 21.5255L1.32455 22.6462L3.07027 23.635L1.32455 24.7556L13.0059 31.3725L20.0585 26.8453V26.0212L13.0672 30.5089L2.74993 24.6647L3.75223 24.0213L13.0059 29.2629L20.0585 24.7359V23.9119L13.0672 28.3995L2.74993 22.5553L3.75223 21.912L13.0059 27.1536L20.0585 22.6266V21.8025L13.0672 26.2901L2.74993 20.446L3.68298 19.8469L13.0275 25.14L20.0585 20.6268V20.2717L19.6732 20.05L13.0885 24.2764L2.77152 18.4323L9.43433 14.1557L8.75722 13.7659L8.75729 13.7661ZM10.1959 14.5944L6.89682 16.7119C7.91002 17.5116 7.82565 18.7051 6.68996 19.6418L10.8432 21.9944C12.3223 21.2522 14.2925 21.1267 15.6798 21.6862L18.9117 19.6117L10.1957 14.5943L10.1959 14.5944ZM26.3549 16.8578C25.7893 17.2246 25.2905 17.5484 24.22 18.2421C23.5009 18.7082 22.7816 19.174 22.0621 19.6394C21.7656 19.831 21.5168 19.9917 21.3394 20.1057C21.3331 20.1099 21.3305 20.1113 21.3243 20.1153V26.1569L26.355 22.7757L26.3549 16.8578ZM12.2228 18.0868C12.4477 18.0882 12.6539 18.1365 12.8078 18.2237C12.9887 18.3262 13.0839 18.4747 13.0724 18.6367C13.0609 18.7986 12.9437 18.9606 12.7466 19.0872C12.5495 19.2137 12.2886 19.2943 12.0213 19.3113C11.7541 19.3283 11.5023 19.2803 11.3214 19.1779C11.1405 19.0754 11.0453 18.9269 11.0568 18.7649C11.0682 18.603 11.1854 18.441 11.3825 18.3144C11.4945 18.2426 11.6282 18.1848 11.7737 18.1454C11.9192 18.106 12.0727 18.086 12.2228 18.0869V18.0868Z" fill="#DF3285"/>
</svg>
