<svg width="36" height="36" viewBox="0 0 36 36" fill="none" xmlns="http://www.w3.org/2000/svg">
<path d="M18 1.125C8.68022 1.125 1.125 8.68022 1.125 18C1.125 27.3198 8.68022 34.875 18 34.875C27.3198 34.875 34.875 27.3198 34.875 18C34.875 8.68022 27.3198 1.125 18 1.125ZM28.3414 28.3414C25.7772 30.898 22.3529 32.4084 18.7359 32.5782C15.1188 32.748 11.5681 31.5651 8.77565 29.2599C5.98316 26.9548 4.1489 23.6925 3.63029 20.1088C3.11169 16.5252 3.94587 12.8768 5.97032 9.87453C7.99476 6.8723 11.0644 4.73132 14.5812 3.86875C18.098 3.00619 21.8099 3.48383 24.9938 5.20861C28.1776 6.93339 30.6053 9.78175 31.8037 13.1987C33.0022 16.6156 32.8856 20.3564 31.4766 23.692C30.7423 25.4301 29.6775 27.0091 28.3414 28.3414Z" fill="#D80000"/>
<path d="M10.6875 14.0625H13.5V16.875H10.6875V14.0625ZM22.5 14.0625H25.3125V16.875H22.5V14.0625ZM23.786 21.6C23.3508 22.6981 22.5948 23.6397 21.6167 24.3019C20.6385 24.9641 19.4836 25.3163 18.3024 25.3125H17.6977C16.5164 25.3163 15.3614 24.9642 14.3832 24.302C13.405 23.6398 12.649 22.6982 12.2139 21.6L12.1239 21.375H9.70088L10.125 22.4354C10.7304 23.9489 11.7754 25.2462 13.1252 26.1601C14.4749 27.074 16.0676 27.5625 17.6977 27.5625H18.3024C19.9324 27.5625 21.5251 27.074 22.8748 26.1601C24.2246 25.2462 25.2696 23.9489 25.875 22.4354L26.2991 21.375H23.8759L23.786 21.6Z" fill="#D80000"/>
</svg>
