<svg width="46" height="46" viewBox="0 0 46 46" fill="none" xmlns="http://www.w3.org/2000/svg">
<g clip-path="url(#clip0_117_1010)">
<path d="M21.4476 17.2043L9.85645 20.3101C9.08792 20.516 8.43266 21.0188 8.03483 21.7079C7.63701 22.3969 7.5292 23.2158 7.73513 23.9843L9.28805 29.7799C9.49398 30.5484 9.99677 31.2037 10.6858 31.6015C11.3749 31.9993 12.1937 32.1072 12.9623 31.9012L14.4112 31.513L15.9641 37.3085C16.067 37.6928 16.3184 38.0204 16.663 38.2194C17.0075 38.4183 17.4169 38.4722 17.8012 38.3692L20.699 37.5928C21.0832 37.4898 21.4109 37.2384 21.6098 36.8939C21.8087 36.5493 21.8626 36.1399 21.7596 35.7556L20.2067 29.9601L24.5534 28.7954L33.3507 32.6498L27.1391 9.46759L21.4476 17.2043ZM28.7448 27.0512L25.2258 25.5094L12.1858 29.0034L10.6329 23.2079L23.6729 19.7138L25.9495 16.6192L28.7448 27.0512ZM36.7649 19.3117C37.4288 21.7893 36.6396 24.4077 34.6956 26.0778L31.5898 14.4867C34.0978 14.9794 36.1049 16.8486 36.7649 19.3117Z" fill="#DC04C6"/>
</g>
<defs>
<clipPath id="clip0_117_1010">
<rect width="36" height="36" fill="white" transform="translate(0.955078 10.272) rotate(-15)"/>
</clipPath>
</defs>
</svg>
