<svg aria-hidden="true" style="position: absolute; width: 0; height: 0; overflow: hidden;" version="1.1" xmlns="http://www.w3.org/2000/svg" xmlns:xlink="http://www.w3.org/1999/xlink">
<defs>
<symbol id="icon-advocate" viewBox="0 0 32 32">
<path fill="#f19305" style="fill: var(--color1, #f19305)" d="M17 3.667v2.333h2.633c0.468 0 0.925 0.141 1.312 0.404l2.263 1.539c0.055 0.037 0.12 0.057 0.187 0.057h5.469c0.265 0 0.52 0.105 0.707 0.293s0.293 0.442 0.293 0.707c0 0.265-0.105 0.52-0.293 0.707s-0.442 0.293-0.707 0.293h-2.104l4.488 10.24c0.090 0.205 0.109 0.434 0.053 0.65s-0.182 0.408-0.36 0.544c-0.133 0.099-0.271 0.191-0.413 0.275-0.338 0.202-0.69 0.38-1.053 0.532-1.206 0.504-2.501 0.762-3.808 0.759-1.307 0.004-2.601-0.253-3.807-0.757-0.363-0.152-0.715-0.331-1.053-0.533-0.142-0.082-0.278-0.172-0.409-0.269l-0.007-0.005c-0.177-0.136-0.304-0.328-0.36-0.544s-0.037-0.446 0.053-0.65l4.491-10.24h-1.181c-0.468 0-0.925-0.141-1.312-0.404l-2.263-1.539c-0.055-0.038-0.12-0.058-0.187-0.057h-2.632v19.333h5.983c0.265 0 0.52 0.105 0.707 0.293s0.293 0.442 0.293 0.707c0 0.265-0.105 0.52-0.293 0.707s-0.442 0.293-0.707 0.293h-13.965c-0.265 0-0.52-0.105-0.707-0.293s-0.293-0.442-0.293-0.707c0-0.265 0.105-0.52 0.293-0.707s0.442-0.293 0.707-0.293h5.983v-19.333h-2.633c-0.067-0-0.132 0.020-0.187 0.057l-2.261 1.539c-0.387 0.263-0.844 0.404-1.312 0.404h-1.181l4.491 10.24c0.087 0.199 0.107 0.421 0.056 0.632s-0.168 0.4-0.335 0.539c-0.107 0.087-0.213 0.168-0.413 0.297-0.337 0.218-0.69 0.411-1.056 0.577-1.204 0.547-2.512 0.829-3.835 0.827-1.323 0.003-2.631-0.279-3.835-0.827-0.366-0.166-0.719-0.359-1.056-0.577-0.143-0.091-0.28-0.189-0.412-0.295-0.166-0.14-0.283-0.329-0.333-0.541s-0.032-0.433 0.053-0.633l4.489-10.24h-2.103c-0.265 0-0.52-0.105-0.707-0.293s-0.293-0.442-0.293-0.707c0-0.265 0.105-0.52 0.293-0.707s0.442-0.293 0.707-0.293h5.469c0.067 0 0.132-0.020 0.188-0.057l2.26-1.539c0.387-0.264 0.845-0.404 1.313-0.404h2.632v-2.333c0-0.265 0.105-0.52 0.293-0.707s0.442-0.293 0.707-0.293c0.265 0 0.52 0.105 0.707 0.293s0.293 0.442 0.293 0.707zM2.924 20.264c1.049 0.559 2.22 0.849 3.409 0.847 1.189 0.003 2.36-0.288 3.409-0.847l-3.409-7.773-3.409 7.773zM22.271 20.232c0.109 0.053 0.232 0.111 0.367 0.168 0.707 0.297 1.74 0.6 3.029 0.6 1.175 0.003 2.336-0.259 3.396-0.768l-3.396-7.743-3.396 7.743z"></path>
</symbol>
<symbol id="icon-ascent" viewBox="0 0 32 32">
<path fill="#2a0ce2" style="fill: var(--color2, #2a0ce2)" d="M0.047 7.547l4.953-4.969 4.953 4.969-1.406 1.406-2.547-2.547v23.594h-2v-23.594l-2.547 2.547-1.406-1.406zM20 6v2h-8v-2h8zM26 12v2h-14v-2h14zM12 18h20v2h-20v-2z"></path>
</symbol>
<symbol id="icon-awareness" viewBox="0 0 32 32">
<path fill="#5956e8" style="fill: var(--color3, #5956e8)" d="M29.769 23.36c-0.063-0.222-0.209-0.41-0.408-0.527s-0.435-0.15-0.659-0.096l-2.213 0.596c1.211-1.785 1.945-3.851 2.133-6 0.182-2.011-0.112-4.036-0.858-5.912s-1.922-3.55-3.435-4.888c-0.175-0.145-0.398-0.217-0.625-0.202s-0.439 0.116-0.593 0.282c-0.155 0.177-0.234 0.408-0.219 0.643s0.123 0.454 0.299 0.61c1.303 1.15 2.317 2.592 2.96 4.207s0.895 3.359 0.738 5.091c-0.152 1.824-0.764 3.579-1.778 5.102l-0.222-2.231c0.017-0.131 0.004-0.265-0.037-0.39s-0.11-0.241-0.202-0.336c-0.091-0.096-0.203-0.17-0.327-0.217s-0.256-0.066-0.388-0.055c-0.132 0.011-0.26 0.051-0.374 0.117s-0.213 0.158-0.287 0.267-0.124 0.234-0.144 0.365c-0.020 0.131-0.011 0.265 0.027 0.391l0.444 5.724 5.556-1.476c0.22-0.064 0.407-0.211 0.521-0.41s0.147-0.434 0.092-0.657z"></path>
<path fill="#5956e8" style="fill: var(--color3, #5956e8)" d="M3.831 15.182c0.118 0.076 0.252 0.125 0.391 0.142 0.232 0.030 0.467-0.032 0.653-0.173s0.309-0.351 0.343-0.582c0.367-2.712 1.745-5.185 3.859-6.924s4.805-2.615 7.537-2.454l-1.991 1.36c-0.141 0.106-0.247 0.252-0.305 0.418s-0.065 0.347-0.020 0.517 0.139 0.324 0.272 0.441c0.132 0.117 0.296 0.191 0.471 0.215 0.2 0.018 0.401-0.032 0.569-0.142l4.738-3.253-4.053-4.071c-0.072-0.111-0.168-0.204-0.281-0.272s-0.239-0.112-0.37-0.126c-0.131-0.014-0.264 0.002-0.388 0.045s-0.238 0.115-0.331 0.208c-0.094 0.093-0.165 0.206-0.21 0.33s-0.061 0.257-0.048 0.388 0.055 0.258 0.123 0.371c0.068 0.113 0.16 0.21 0.27 0.282l1.511 1.511c-3.155-0.151-6.252 0.887-8.679 2.907s-4.009 4.878-4.432 8.008c-0.023 0.163 0 0.329 0.066 0.479s0.172 0.28 0.307 0.374z"></path>
<path fill="#5956e8" style="fill: var(--color3, #5956e8)" d="M19.316 26.604c-1.388 0.443-2.852 0.598-4.302 0.453-1.766-0.173-3.463-0.773-4.945-1.749s-2.704-2.297-3.561-3.851l2.213 0.827c0.204 0.035 0.414-0.002 0.594-0.104s0.318-0.265 0.39-0.459c0.073-0.194 0.075-0.407 0.008-0.603s-0.202-0.362-0.379-0.469l-4.080-1.511-1.307-0.471-0.987 5.644c-0.034 0.226 0.020 0.456 0.15 0.643s0.328 0.317 0.552 0.362h0.151c0.209 0.004 0.413-0.066 0.576-0.198s0.274-0.317 0.313-0.522l0.373-2.133c1.005 1.761 2.418 3.256 4.118 4.36s3.642 1.785 5.659 1.986c1.687 0.167 3.39-0.014 5.004-0.533 0.206-0.085 0.372-0.244 0.466-0.446s0.109-0.431 0.042-0.643c-0.067-0.212-0.211-0.391-0.404-0.502s-0.42-0.146-0.637-0.098l-0.009 0.018z"></path>
<path fill="#5956e8" style="fill: var(--color3, #5956e8)" d="M19.556 11.556h-7.111c-0.236 0-0.462 0.094-0.629 0.26s-0.26 0.393-0.26 0.629v7.111c0 0.236 0.094 0.462 0.26 0.629s0.393 0.26 0.629 0.26h7.111c0.236 0 0.462-0.094 0.629-0.26s0.26-0.393 0.26-0.629v-7.111c0-0.236-0.094-0.462-0.26-0.629s-0.393-0.26-0.629-0.26zM18.667 18.667h-5.333v-5.333h5.333v5.333z"></path>
</symbol>
<symbol id="icon-convert" viewBox="0 0 32 32">
<path fill="#df3285" style="fill: var(--color4, #df3285)" d="M20.439 4.114l-6.077 3.901 0.616 0.337 5.407-3.471 9.171 5.195-5.26 3.376 0.256 0.14v0.428l4.12-2.645 0.865 0.49-4.985 3.2v0.733l4.040-2.593 0.945 0.536-4.985 3.2v0.733l4.040-2.593 0.945 0.536-4.985 3.2v0.733l6.252-4.013-1.552-0.879 1.552-0.996-1.552-0.879 1.552-0.996-1.471-0.833 1.49-0.957-10.383-5.882zM22.381 6.91c-1.315 0.66-3.066 0.771-4.299 0.274l-2.411 1.547 7.931 4.342 2.286-1.468c-0.901-0.711-0.826-1.772 0.184-2.604l-3.692-2.091zM14.219 9.219l-4.418 2.881 8.476 4.879 0.083-0.053c0.156-0.101 0.377-0.243 0.64-0.413 0.526-0.34 1.223-0.791 1.917-1.241 1-0.648 1.516-0.982 1.995-1.293l-8.693-4.759zM21.436 9.292c0 0 0 0 0 0 0.2 0.001 0.383 0.044 0.52 0.121 0.080 0.045 0.141 0.101 0.182 0.164s0.059 0.132 0.053 0.203c-0.005 0.071-0.033 0.143-0.083 0.212s-0.12 0.133-0.207 0.188c-0.087 0.056-0.188 0.102-0.299 0.136s-0.228 0.056-0.346 0.063-0.233 0.001-0.34-0.019c-0.107-0.020-0.203-0.054-0.282-0.099-0.161-0.091-0.245-0.223-0.235-0.367s0.114-0.288 0.29-0.4c0.1-0.064 0.218-0.115 0.348-0.15s0.266-0.053 0.399-0.052zM7.784 12.237l-6.588 4.228 1.471 0.833-1.49 0.957 1.552 0.879-1.552 0.996 1.552 0.879-1.552 0.996 10.383 5.882 6.269-4.024v-0.733l-6.215 3.989-9.171-5.195 0.891-0.572 8.226 4.659 6.269-4.024v-0.732l-6.215 3.989-9.171-5.195 0.891-0.572 8.226 4.659 6.269-4.024v-0.733l-6.215 3.989-9.171-5.195 0.829-0.533 8.306 4.705 6.25-4.012v-0.316l-0.343-0.197-5.853 3.757-9.171-5.195 5.922-3.801-0.602-0.346zM9.063 12.973l-2.933 1.882c0.901 0.711 0.826 1.772-0.184 2.604l3.692 2.091c1.315-0.66 3.066-0.771 4.299-0.274l2.873-1.844-7.747-4.46zM23.427 14.985c-0.503 0.326-0.946 0.614-1.898 1.231-0.639 0.414-1.279 0.828-1.918 1.242-0.264 0.17-0.485 0.313-0.642 0.415-0.006 0.004-0.008 0.005-0.013 0.009v5.37l4.472-3.006-0-5.26zM10.865 16.077c0.2 0.001 0.383 0.044 0.52 0.122 0.161 0.091 0.245 0.223 0.235 0.367s-0.114 0.288-0.29 0.4c-0.175 0.112-0.407 0.184-0.645 0.199s-0.461-0.028-0.622-0.119c-0.161-0.091-0.245-0.223-0.235-0.367s0.114-0.288 0.29-0.4c0.1-0.064 0.218-0.115 0.348-0.15s0.266-0.053 0.399-0.052v-0z"></path>
</symbol>
<symbol id="icon-engage" viewBox="0 0 32 32">
<path fill="#33ca30" style="fill: var(--color5, #33ca30)" d="M26 14c0.53 0 1.039-0.211 1.414-0.586s0.586-0.884 0.586-1.414v-6c0-0.53-0.211-1.039-0.586-1.414s-0.884-0.586-1.414-0.586h-6c-0.53 0-1.039 0.211-1.414 0.586s-0.586 0.884-0.586 1.414v6c0 0.53 0.211 1.039 0.586 1.414s0.884 0.586 1.414 0.586h2v4.1c-0.961 0.196-1.843 0.67-2.536 1.364s-1.168 1.575-1.364 2.536h-4.1v-2c0-0.53-0.211-1.039-0.586-1.414s-0.884-0.586-1.414-0.586h-2v-4.1c1.214-0.248 2.293-0.938 3.027-1.936s1.072-2.233 0.947-3.466-0.702-2.375-1.621-3.206c-0.919-0.831-2.114-1.291-3.353-1.291s-2.434 0.46-3.353 1.291-1.497 1.974-1.622 3.206c-0.125 1.233 0.213 2.468 0.947 3.466s1.813 1.688 3.027 1.936v4.1h-2c-0.53 0-1.039 0.211-1.414 0.586s-0.586 0.884-0.586 1.414v6c0 0.53 0.211 1.039 0.586 1.414s0.884 0.586 1.414 0.586h6c0.53 0 1.039-0.211 1.414-0.586s0.586-0.884 0.586-1.414v-2h4.1c0.181 0.885 0.598 1.704 1.207 2.371s1.388 1.156 2.253 1.416 1.784 0.281 2.66 0.060c0.876-0.221 1.676-0.674 2.314-1.313s1.092-1.438 1.313-2.314 0.2-1.795-0.060-2.66c-0.26-0.865-0.749-1.643-1.416-2.253s-1.486-1.026-2.371-1.207v-4.1h2zM6 9c0-0.593 0.176-1.173 0.506-1.667s0.798-0.878 1.346-1.105c0.548-0.227 1.151-0.286 1.733-0.171s1.117 0.401 1.536 0.821 0.705 0.954 0.821 1.536c0.116 0.582 0.056 1.185-0.171 1.733s-0.612 1.017-1.105 1.346c-0.493 0.33-1.073 0.506-1.667 0.506-0.796 0-1.559-0.316-2.121-0.879s-0.879-1.326-0.879-2.121zM12 26h-6v-6h6v6zM26 23c0 0.593-0.176 1.173-0.506 1.667s-0.798 0.878-1.346 1.105c-0.548 0.227-1.151 0.287-1.733 0.171s-1.117-0.401-1.536-0.821-0.705-0.954-0.821-1.536c-0.116-0.582-0.056-1.185 0.171-1.733s0.612-1.017 1.105-1.346c0.493-0.33 1.073-0.506 1.667-0.506 0.796 0 1.559 0.316 2.121 0.879s0.879 1.326 0.879 2.121zM20 6h6v6h-6v-6z"></path>
</symbol>
<symbol id="icon-excicle" viewBox="0 0 32 32">
<path fill="#d80000" style="fill: var(--color6, #d80000)" d="M16 1c-8.284 0-15 6.716-15 15s6.716 15 15 15c8.284 0 15-6.716 15-15s-6.716-15-15-15zM25.192 25.192c-2.279 2.273-5.323 3.615-8.538 3.766s-6.371-0.901-8.854-2.95c-2.482-2.049-4.113-4.949-4.574-8.134s0.28-6.428 2.080-9.097c1.8-2.669 4.528-4.572 7.654-5.338s6.425-0.342 9.256 1.191c2.83 1.533 4.988 4.065 6.053 7.102s0.962 6.362-0.291 9.327c-0.653 1.545-1.599 2.949-2.787 4.133z"></path>
<path fill="#d80000" style="fill: var(--color6, #d80000)" d="M9.5 12.5h2.5v2.5h-2.5v-2.5zM20 12.5h2.5v2.5h-2.5v-2.5zM21.143 19.2c-0.387 0.976-1.059 1.813-1.928 2.402s-1.896 0.902-2.946 0.898h-0.537c-1.050 0.003-2.077-0.31-2.946-0.898s-1.542-1.426-1.928-2.402l-0.080-0.2h-2.154l0.377 0.943c0.538 1.345 1.467 2.498 2.667 3.311s2.615 1.247 4.064 1.247h0.538c1.449 0 2.865-0.434 4.064-1.247s2.129-1.965 2.667-3.311l0.377-0.943h-2.154l-0.080 0.2z"></path>
</symbol>
<symbol id="icon-promote" viewBox="0 0 32 32">
<path fill="#dc04c6" style="fill: var(--color7, #dc04c6)" d="M14.92 11.968l-8.063 2.161c-0.535 0.143-0.99 0.493-1.267 0.972s-0.352 1.049-0.208 1.584l1.080 4.032c0.143 0.535 0.493 0.99 0.972 1.267s1.049 0.352 1.584 0.209l1.008-0.27 1.080 4.032c0.072 0.267 0.246 0.495 0.486 0.634s0.524 0.176 0.792 0.104l2.016-0.54c0.267-0.072 0.495-0.247 0.634-0.486s0.176-0.525 0.104-0.792l-1.080-4.032 3.024-0.81 6.12 2.681-4.321-16.127-3.959 5.382zM19.996 18.818l-2.448-1.073-9.071 2.431-1.080-4.032 9.071-2.431 1.584-2.153 1.945 7.257zM25.576 13.434c0.462 1.724-0.087 3.545-1.439 4.707l-2.161-8.063c1.745 0.343 3.141 1.643 3.6 3.357z"></path>
</symbol>
<symbol id="icon-subscribe" viewBox="0 0 32 32">
<path fill="#1d69c4" style="fill: var(--color8, #1d69c4)" d="M28.444 5.333h-24.889c-0.471 0-0.924 0.187-1.257 0.521s-0.521 0.786-0.521 1.257v17.778c0 0.471 0.187 0.924 0.521 1.257s0.786 0.521 1.257 0.521h24.889c0.471 0 0.924-0.187 1.257-0.521s0.521-0.786 0.521-1.257v-17.778c0-0.471-0.187-0.924-0.521-1.257s-0.786-0.521-1.257-0.521zM27.076 24.889h-22.044l6.222-6.436-1.28-1.236-6.418 6.64v-15.396l11.049 10.996c0.333 0.331 0.784 0.517 1.253 0.517s0.92-0.186 1.253-0.517l11.333-11.271v15.556l-6.542-6.542-1.253 1.253 6.427 6.436zM4.72 7.111h22.284l-11.147 11.084-11.138-11.084z"></path>
</symbol>
</defs>
</svg>
